<svg width="166" height="46" viewBox="0 0 166 46" fill="none" xmlns="http://www.w3.org/2000/svg">
<path d="M26.5 13C28.1786 6.42084 34.5183 3.06147 48.3214 3.00001C48.5421 2.99919 48.7607 3.04173 48.9648 3.1252C49.1688 3.20866 49.3542 3.3314 49.5102 3.48632C49.6662 3.64125 49.7898 3.82531 49.8739 4.0279C49.958 4.23048 50.0008 4.44758 50 4.66668V34.6667C50 35.1087 49.8231 35.5326 49.5083 35.8452C49.1936 36.1577 48.7666 36.3333 48.3214 36.3333C34.8929 36.3333 29.705 39.0219 26.5 43M26.5 13C24.8214 6.42084 18.4817 3.06147 4.67858 3.00001C4.45792 2.99919 4.23927 3.04173 4.03524 3.1252C3.83121 3.20866 3.64583 3.3314 3.4898 3.48632C3.33376 3.64125 3.21015 3.82531 3.12609 4.0279C3.04203 4.23048 2.99918 4.44758 3.00001 4.66668V34.4656C3.00001 35.4948 3.64207 36.3333 4.67858 36.3333C18.1071 36.3333 23.3139 39.0417 26.5 43M26.5 13V43" stroke="white" stroke-width="5" stroke-linecap="round" stroke-linejoin="round"/>
<path d="M75.66 16.36H80.14V19H72.24V4.96H75.66V16.36ZM92.2912 13.24C92.2912 13.56 92.2713 13.8933 92.2313 14.24H84.4913C84.5446 14.9333 84.7646 15.4667 85.1513 15.84C85.5513 16.2 86.0379 16.38 86.6113 16.38C87.4646 16.38 88.0579 16.02 88.3913 15.3H92.0313C91.8446 16.0333 91.5046 16.6933 91.0113 17.28C90.5313 17.8667 89.9246 18.3267 89.1913 18.66C88.4579 18.9933 87.6379 19.16 86.7313 19.16C85.6379 19.16 84.6646 18.9267 83.8113 18.46C82.9579 17.9933 82.2913 17.3267 81.8113 16.46C81.3313 15.5933 81.0913 14.58 81.0913 13.42C81.0913 12.26 81.3246 11.2467 81.7913 10.38C82.2713 9.51333 82.9379 8.84667 83.7913 8.38C84.6446 7.91333 85.6246 7.68 86.7313 7.68C87.8113 7.68 88.7713 7.90667 89.6113 8.36C90.4513 8.81333 91.1046 9.46 91.5713 10.3C92.0513 11.14 92.2912 12.12 92.2912 13.24ZM88.7913 12.34C88.7913 11.7533 88.5913 11.2867 88.1913 10.94C87.7913 10.5933 87.2913 10.42 86.6913 10.42C86.1179 10.42 85.6313 10.5867 85.2313 10.92C84.8446 11.2533 84.6046 11.7267 84.5113 12.34H88.7913ZM93.4155 13.4C93.4155 12.2533 93.6288 11.2467 94.0555 10.38C94.4955 9.51333 95.0888 8.84667 95.8355 8.38C96.5821 7.91333 97.4155 7.68 98.3355 7.68C99.1221 7.68 99.8088 7.84 100.395 8.16C100.995 8.48 101.455 8.9 101.775 9.42V7.84H105.195V19H101.775V17.42C101.442 17.94 100.975 18.36 100.375 18.68C99.7888 19 99.1021 19.16 98.3155 19.16C97.4088 19.16 96.5821 18.9267 95.8355 18.46C95.0888 17.98 94.4955 17.3067 94.0555 16.44C93.6288 15.56 93.4155 14.5467 93.4155 13.4ZM101.775 13.42C101.775 12.5667 101.535 11.8933 101.055 11.4C100.589 10.9067 100.015 10.66 99.3355 10.66C98.6555 10.66 98.0755 10.9067 97.5955 11.4C97.1288 11.88 96.8955 12.5467 96.8955 13.4C96.8955 14.2533 97.1288 14.9333 97.5955 15.44C98.0755 15.9333 98.6555 16.18 99.3355 16.18C100.015 16.18 100.589 15.9333 101.055 15.44C101.535 14.9467 101.775 14.2733 101.775 13.42ZM111.09 9.7C111.49 9.08667 111.99 8.60667 112.59 8.26C113.19 7.9 113.856 7.72 114.59 7.72V11.34H113.65C112.796 11.34 112.156 11.5267 111.73 11.9C111.303 12.26 111.09 12.9 111.09 13.82V19H107.67V7.84H111.09V9.7ZM123.024 7.72C124.331 7.72 125.371 8.14667 126.144 9C126.931 9.84 127.324 11 127.324 12.48V19H123.924V12.94C123.924 12.1933 123.731 11.6133 123.344 11.2C122.958 10.7867 122.438 10.58 121.784 10.58C121.131 10.58 120.611 10.7867 120.224 11.2C119.838 11.6133 119.644 12.1933 119.644 12.94V19H116.224V7.84H119.644V9.32C119.991 8.82667 120.458 8.44 121.044 8.16C121.631 7.86667 122.291 7.72 123.024 7.72ZM131.421 6.68C130.821 6.68 130.328 6.50667 129.941 6.16C129.568 5.8 129.381 5.36 129.381 4.84C129.381 4.30667 129.568 3.86667 129.941 3.52C130.328 3.16 130.821 2.98 131.421 2.98C132.008 2.98 132.488 3.16 132.861 3.52C133.248 3.86667 133.441 4.30667 133.441 4.84C133.441 5.36 133.248 5.8 132.861 6.16C132.488 6.50667 132.008 6.68 131.421 6.68ZM133.121 7.84V19H129.701V7.84H133.121ZM142.399 7.72C143.706 7.72 144.746 8.14667 145.519 9C146.306 9.84 146.699 11 146.699 12.48V19H143.299V12.94C143.299 12.1933 143.106 11.6133 142.719 11.2C142.333 10.7867 141.813 10.58 141.159 10.58C140.506 10.58 139.986 10.7867 139.599 11.2C139.213 11.6133 139.019 12.1933 139.019 12.94V19H135.599V7.84H139.019V9.32C139.366 8.82667 139.833 8.44 140.419 8.16C141.006 7.86667 141.666 7.72 142.399 7.72ZM153.316 7.68C154.103 7.68 154.789 7.84 155.376 8.16C155.976 8.48 156.436 8.9 156.756 9.42V7.84H160.176V18.98C160.176 20.0067 159.969 20.9333 159.556 21.76C159.156 22.6 158.536 23.2667 157.696 23.76C156.869 24.2533 155.836 24.5 154.596 24.5C152.943 24.5 151.603 24.1067 150.576 23.32C149.549 22.5467 148.963 21.4933 148.816 20.16H152.196C152.303 20.5867 152.556 20.92 152.956 21.16C153.356 21.4133 153.849 21.54 154.436 21.54C155.143 21.54 155.703 21.3333 156.116 20.92C156.543 20.52 156.756 19.8733 156.756 18.98V17.4C156.423 17.92 155.963 18.3467 155.376 18.68C154.789 19 154.103 19.16 153.316 19.16C152.396 19.16 151.563 18.9267 150.816 18.46C150.069 17.98 149.476 17.3067 149.036 16.44C148.609 15.56 148.396 14.5467 148.396 13.4C148.396 12.2533 148.609 11.2467 149.036 10.38C149.476 9.51333 150.069 8.84667 150.816 8.38C151.563 7.91333 152.396 7.68 153.316 7.68ZM156.756 13.42C156.756 12.5667 156.516 11.8933 156.036 11.4C155.569 10.9067 154.996 10.66 154.316 10.66C153.636 10.66 153.056 10.9067 152.576 11.4C152.109 11.88 151.876 12.5467 151.876 13.4C151.876 14.2533 152.109 14.9333 152.576 15.44C153.056 15.9333 153.636 16.18 154.316 16.18C154.996 16.18 155.569 15.9333 156.036 15.44C156.516 14.9467 156.756 14.2733 156.756 13.42ZM77.32 37.14C76.2933 37.14 75.3733 36.9733 74.56 36.64C73.7467 36.3067 73.0933 35.8133 72.6 35.16C72.12 34.5067 71.8667 33.72 71.84 32.8H75.48C75.5333 33.32 75.7133 33.72 76.02 34C76.3267 34.2667 76.7267 34.4 77.22 34.4C77.7267 34.4 78.1267 34.2867 78.42 34.06C78.7133 33.82 78.86 33.4933 78.86 33.08C78.86 32.7333 78.74 32.4467 78.5 32.22C78.2733 31.9933 77.9867 31.8067 77.64 31.66C77.3067 31.5133 76.8267 31.3467 76.2 31.16C75.2933 30.88 74.5533 30.6 73.98 30.32C73.4067 30.04 72.9133 29.6267 72.5 29.08C72.0867 28.5333 71.88 27.82 71.88 26.94C71.88 25.6333 72.3533 24.6133 73.3 23.88C74.2467 23.1333 75.48 22.76 77 22.76C78.5467 22.76 79.7933 23.1333 80.74 23.88C81.6867 24.6133 82.1933 25.64 82.26 26.96H78.56C78.5333 26.5067 78.3667 26.1533 78.06 25.9C77.7533 25.6333 77.36 25.5 76.88 25.5C76.4667 25.5 76.1333 25.6133 75.88 25.84C75.6267 26.0533 75.5 26.3667 75.5 26.78C75.5 27.2333 75.7133 27.5867 76.14 27.84C76.5667 28.0933 77.2333 28.3667 78.14 28.66C79.0467 28.9667 79.78 29.26 80.34 29.54C80.9133 29.82 81.4067 30.2267 81.82 30.76C82.2333 31.2933 82.44 31.98 82.44 32.82C82.44 33.62 82.2333 34.3467 81.82 35C81.42 35.6533 80.8333 36.1733 80.06 36.56C79.2867 36.9467 78.3733 37.14 77.32 37.14ZM91.3647 37L87.9647 32.32V37H84.5447V22.2H87.9647V30.38L91.3447 25.84H95.5647L90.9247 31.44L95.6047 37H91.3647ZM98.628 24.68C98.028 24.68 97.5346 24.5067 97.148 24.16C96.7746 23.8 96.588 23.36 96.588 22.84C96.588 22.3067 96.7746 21.8667 97.148 21.52C97.5346 21.16 98.028 20.98 98.628 20.98C99.2146 20.98 99.6946 21.16 100.068 21.52C100.455 21.8667 100.648 22.3067 100.648 22.84C100.648 23.36 100.455 23.8 100.068 24.16C99.6946 24.5067 99.2146 24.68 98.628 24.68ZM100.328 25.84V37H96.908V25.84H100.328ZM106.226 22.2V37H102.806V22.2H106.226ZM112.125 22.2V37H108.705V22.2H112.125Z" fill="white"/>
</svg>
